<mxfile host="app.diagrams.net" modified="2021-01-26T08:55:08.405Z" agent="5.0 (Macintosh; Intel Mac OS X 10_15_7) AppleWebKit/537.36 (KHTML, like Gecko) Chrome/87.0.4280.141 Safari/537.36" etag="ouXT0j9BRQS0eK0zJJg1" version="14.2.6" type="github" pages="2">
  <diagram id="rJ2n6RNLnhipylriSUdo" name="put">
    <mxGraphModel dx="1933" dy="584" grid="1" gridSize="10" guides="1" tooltips="1" connect="1" arrows="1" fold="1" page="1" pageScale="1" pageWidth="827" pageHeight="1169" math="0" shadow="0">
      <root>
        <mxCell id="0" />
        <mxCell id="1" parent="0" />
        <mxCell id="wlPEz3E3Dr9wD_wk4tuD-4" style="edgeStyle=orthogonalEdgeStyle;rounded=0;orthogonalLoop=1;jettySize=auto;html=1;" edge="1" parent="1" source="wlPEz3E3Dr9wD_wk4tuD-1" target="wlPEz3E3Dr9wD_wk4tuD-3">
          <mxGeometry relative="1" as="geometry" />
        </mxCell>
        <mxCell id="wlPEz3E3Dr9wD_wk4tuD-1" value="put" style="rounded=0;whiteSpace=wrap;html=1;" vertex="1" parent="1">
          <mxGeometry x="80" y="80" width="120" height="60" as="geometry" />
        </mxCell>
        <mxCell id="wlPEz3E3Dr9wD_wk4tuD-6" style="edgeStyle=orthogonalEdgeStyle;rounded=0;orthogonalLoop=1;jettySize=auto;html=1;entryX=0.5;entryY=0;entryDx=0;entryDy=0;" edge="1" parent="1" source="wlPEz3E3Dr9wD_wk4tuD-3" target="wlPEz3E3Dr9wD_wk4tuD-5">
          <mxGeometry relative="1" as="geometry" />
        </mxCell>
        <mxCell id="wlPEz3E3Dr9wD_wk4tuD-3" value="key 计算 hash 值" style="rounded=0;whiteSpace=wrap;html=1;" vertex="1" parent="1">
          <mxGeometry x="80" y="200" width="120" height="60" as="geometry" />
        </mxCell>
        <mxCell id="wlPEz3E3Dr9wD_wk4tuD-7" style="edgeStyle=orthogonalEdgeStyle;rounded=0;orthogonalLoop=1;jettySize=auto;html=1;entryX=1;entryY=0.5;entryDx=0;entryDy=0;" edge="1" parent="1" source="wlPEz3E3Dr9wD_wk4tuD-5" target="wlPEz3E3Dr9wD_wk4tuD-8">
          <mxGeometry relative="1" as="geometry">
            <mxPoint x="240" y="360" as="targetPoint" />
          </mxGeometry>
        </mxCell>
        <mxCell id="wlPEz3E3Dr9wD_wk4tuD-11" value="N" style="edgeLabel;html=1;align=center;verticalAlign=middle;resizable=0;points=[];" vertex="1" connectable="0" parent="wlPEz3E3Dr9wD_wk4tuD-7">
          <mxGeometry x="-0.3556" y="-2" relative="1" as="geometry">
            <mxPoint x="-1" y="2" as="offset" />
          </mxGeometry>
        </mxCell>
        <mxCell id="wlPEz3E3Dr9wD_wk4tuD-13" value="Y" style="edgeStyle=orthogonalEdgeStyle;rounded=0;orthogonalLoop=1;jettySize=auto;html=1;entryX=0;entryY=0.5;entryDx=0;entryDy=0;" edge="1" parent="1" source="wlPEz3E3Dr9wD_wk4tuD-5" target="wlPEz3E3Dr9wD_wk4tuD-12">
          <mxGeometry relative="1" as="geometry" />
        </mxCell>
        <mxCell id="wlPEz3E3Dr9wD_wk4tuD-5" value="table存在？" style="rhombus;whiteSpace=wrap;html=1;" vertex="1" parent="1">
          <mxGeometry x="100" y="320" width="80" height="80" as="geometry" />
        </mxCell>
        <mxCell id="wlPEz3E3Dr9wD_wk4tuD-8" value="resize&lt;br&gt;初始化大小16" style="rounded=0;whiteSpace=wrap;html=1;" vertex="1" parent="1">
          <mxGeometry x="-80" y="330" width="120" height="60" as="geometry" />
        </mxCell>
        <mxCell id="wlPEz3E3Dr9wD_wk4tuD-15" style="edgeStyle=orthogonalEdgeStyle;rounded=0;orthogonalLoop=1;jettySize=auto;html=1;entryX=0;entryY=0.5;entryDx=0;entryDy=0;" edge="1" parent="1" source="wlPEz3E3Dr9wD_wk4tuD-12" target="wlPEz3E3Dr9wD_wk4tuD-14">
          <mxGeometry relative="1" as="geometry" />
        </mxCell>
        <mxCell id="wlPEz3E3Dr9wD_wk4tuD-12" value="计算存储位置 (n-1) &amp;amp; hash" style="rounded=0;whiteSpace=wrap;html=1;" vertex="1" parent="1">
          <mxGeometry x="240" y="330" width="120" height="60" as="geometry" />
        </mxCell>
        <mxCell id="wlPEz3E3Dr9wD_wk4tuD-17" value="N" style="edgeStyle=orthogonalEdgeStyle;rounded=0;orthogonalLoop=1;jettySize=auto;html=1;" edge="1" parent="1" source="wlPEz3E3Dr9wD_wk4tuD-14" target="wlPEz3E3Dr9wD_wk4tuD-16">
          <mxGeometry relative="1" as="geometry" />
        </mxCell>
        <mxCell id="wlPEz3E3Dr9wD_wk4tuD-19" style="edgeStyle=orthogonalEdgeStyle;rounded=0;orthogonalLoop=1;jettySize=auto;html=1;" edge="1" parent="1" source="wlPEz3E3Dr9wD_wk4tuD-14" target="wlPEz3E3Dr9wD_wk4tuD-18">
          <mxGeometry relative="1" as="geometry" />
        </mxCell>
        <mxCell id="wlPEz3E3Dr9wD_wk4tuD-22" value="Y" style="edgeLabel;html=1;align=center;verticalAlign=middle;resizable=0;points=[];" vertex="1" connectable="0" parent="wlPEz3E3Dr9wD_wk4tuD-19">
          <mxGeometry x="-0.2028" relative="1" as="geometry">
            <mxPoint as="offset" />
          </mxGeometry>
        </mxCell>
        <mxCell id="wlPEz3E3Dr9wD_wk4tuD-14" value="指定位置存在数据？" style="rhombus;whiteSpace=wrap;html=1;" vertex="1" parent="1">
          <mxGeometry x="440" y="320" width="80" height="80" as="geometry" />
        </mxCell>
        <mxCell id="wlPEz3E3Dr9wD_wk4tuD-16" value="存放Node" style="rounded=0;whiteSpace=wrap;html=1;" vertex="1" parent="1">
          <mxGeometry x="600" y="330" width="120" height="60" as="geometry" />
        </mxCell>
        <mxCell id="wlPEz3E3Dr9wD_wk4tuD-21" value="N" style="edgeStyle=orthogonalEdgeStyle;rounded=0;orthogonalLoop=1;jettySize=auto;html=1;" edge="1" parent="1" source="wlPEz3E3Dr9wD_wk4tuD-18" target="wlPEz3E3Dr9wD_wk4tuD-20">
          <mxGeometry relative="1" as="geometry" />
        </mxCell>
        <mxCell id="wlPEz3E3Dr9wD_wk4tuD-18" value="hash相等 值也相等" style="rhombus;whiteSpace=wrap;html=1;" vertex="1" parent="1">
          <mxGeometry x="440" y="470" width="80" height="80" as="geometry" />
        </mxCell>
        <mxCell id="wlPEz3E3Dr9wD_wk4tuD-24" style="edgeStyle=orthogonalEdgeStyle;rounded=0;orthogonalLoop=1;jettySize=auto;html=1;exitX=0;exitY=0.5;exitDx=0;exitDy=0;entryX=1;entryY=0.5;entryDx=0;entryDy=0;" edge="1" parent="1" source="wlPEz3E3Dr9wD_wk4tuD-20" target="wlPEz3E3Dr9wD_wk4tuD-23">
          <mxGeometry relative="1" as="geometry" />
        </mxCell>
        <mxCell id="wlPEz3E3Dr9wD_wk4tuD-25" value="N" style="edgeLabel;html=1;align=center;verticalAlign=middle;resizable=0;points=[];" vertex="1" connectable="0" parent="wlPEz3E3Dr9wD_wk4tuD-24">
          <mxGeometry x="-0.0667" y="-2" relative="1" as="geometry">
            <mxPoint as="offset" />
          </mxGeometry>
        </mxCell>
        <mxCell id="wlPEz3E3Dr9wD_wk4tuD-32" style="edgeStyle=orthogonalEdgeStyle;rounded=0;orthogonalLoop=1;jettySize=auto;html=1;entryX=0.5;entryY=0;entryDx=0;entryDy=0;" edge="1" parent="1" source="wlPEz3E3Dr9wD_wk4tuD-20" target="wlPEz3E3Dr9wD_wk4tuD-31">
          <mxGeometry relative="1" as="geometry" />
        </mxCell>
        <mxCell id="wlPEz3E3Dr9wD_wk4tuD-20" value="红黑树" style="rhombus;whiteSpace=wrap;html=1;" vertex="1" parent="1">
          <mxGeometry x="260" y="470" width="80" height="80" as="geometry" />
        </mxCell>
        <mxCell id="wlPEz3E3Dr9wD_wk4tuD-27" style="edgeStyle=orthogonalEdgeStyle;rounded=0;orthogonalLoop=1;jettySize=auto;html=1;" edge="1" parent="1" source="wlPEz3E3Dr9wD_wk4tuD-23" target="wlPEz3E3Dr9wD_wk4tuD-26">
          <mxGeometry relative="1" as="geometry" />
        </mxCell>
        <mxCell id="wlPEz3E3Dr9wD_wk4tuD-23" value="加入链表" style="rounded=0;whiteSpace=wrap;html=1;" vertex="1" parent="1">
          <mxGeometry x="80" y="480" width="120" height="60" as="geometry" />
        </mxCell>
        <mxCell id="wlPEz3E3Dr9wD_wk4tuD-29" style="edgeStyle=orthogonalEdgeStyle;rounded=0;orthogonalLoop=1;jettySize=auto;html=1;exitX=0;exitY=0.5;exitDx=0;exitDy=0;" edge="1" parent="1" source="wlPEz3E3Dr9wD_wk4tuD-26" target="wlPEz3E3Dr9wD_wk4tuD-28">
          <mxGeometry relative="1" as="geometry" />
        </mxCell>
        <mxCell id="wlPEz3E3Dr9wD_wk4tuD-30" value="Y" style="edgeLabel;html=1;align=center;verticalAlign=middle;resizable=0;points=[];" vertex="1" connectable="0" parent="wlPEz3E3Dr9wD_wk4tuD-29">
          <mxGeometry x="-0.1333" y="2" relative="1" as="geometry">
            <mxPoint y="-2" as="offset" />
          </mxGeometry>
        </mxCell>
        <mxCell id="wlPEz3E3Dr9wD_wk4tuD-33" style="edgeStyle=orthogonalEdgeStyle;rounded=0;orthogonalLoop=1;jettySize=auto;html=1;entryX=0;entryY=0.5;entryDx=0;entryDy=0;" edge="1" parent="1" source="wlPEz3E3Dr9wD_wk4tuD-26" target="wlPEz3E3Dr9wD_wk4tuD-31">
          <mxGeometry relative="1" as="geometry">
            <Array as="points">
              <mxPoint x="140" y="720" />
            </Array>
          </mxGeometry>
        </mxCell>
        <mxCell id="wlPEz3E3Dr9wD_wk4tuD-26" value="链表长度大于8" style="rhombus;whiteSpace=wrap;html=1;" vertex="1" parent="1">
          <mxGeometry x="100" y="600" width="80" height="80" as="geometry" />
        </mxCell>
        <mxCell id="wlPEz3E3Dr9wD_wk4tuD-28" value="转红黑树" style="rounded=0;whiteSpace=wrap;html=1;" vertex="1" parent="1">
          <mxGeometry x="-80" y="610" width="120" height="60" as="geometry" />
        </mxCell>
        <mxCell id="wlPEz3E3Dr9wD_wk4tuD-35" style="edgeStyle=orthogonalEdgeStyle;rounded=0;orthogonalLoop=1;jettySize=auto;html=1;" edge="1" parent="1" source="wlPEz3E3Dr9wD_wk4tuD-31" target="wlPEz3E3Dr9wD_wk4tuD-34">
          <mxGeometry relative="1" as="geometry" />
        </mxCell>
        <mxCell id="wlPEz3E3Dr9wD_wk4tuD-31" value="加入红黑树节点" style="rounded=0;whiteSpace=wrap;html=1;" vertex="1" parent="1">
          <mxGeometry x="240" y="690" width="120" height="60" as="geometry" />
        </mxCell>
        <mxCell id="wlPEz3E3Dr9wD_wk4tuD-37" style="edgeStyle=orthogonalEdgeStyle;rounded=0;orthogonalLoop=1;jettySize=auto;html=1;" edge="1" parent="1" source="wlPEz3E3Dr9wD_wk4tuD-34" target="wlPEz3E3Dr9wD_wk4tuD-36">
          <mxGeometry relative="1" as="geometry" />
        </mxCell>
        <mxCell id="wlPEz3E3Dr9wD_wk4tuD-34" value="节点数是否大于阈值" style="rhombus;whiteSpace=wrap;html=1;" vertex="1" parent="1">
          <mxGeometry x="260" y="820" width="80" height="80" as="geometry" />
        </mxCell>
        <mxCell id="wlPEz3E3Dr9wD_wk4tuD-36" value="扩容" style="rounded=0;whiteSpace=wrap;html=1;" vertex="1" parent="1">
          <mxGeometry x="420" y="830" width="120" height="60" as="geometry" />
        </mxCell>
      </root>
    </mxGraphModel>
  </diagram>
  <diagram id="6LQXuWdImiFkGCxiQG9F" name="jvm-nc">
    <mxGraphModel dx="1106" dy="584" grid="1" gridSize="10" guides="1" tooltips="1" connect="1" arrows="1" fold="1" page="1" pageScale="1" pageWidth="827" pageHeight="1169" math="0" shadow="0">
      <root>
        <mxCell id="CH4-YT0E6y_l0uyXhd_9-0" />
        <mxCell id="CH4-YT0E6y_l0uyXhd_9-1" parent="CH4-YT0E6y_l0uyXhd_9-0" />
        <mxCell id="CH4-YT0E6y_l0uyXhd_9-14" value="" style="rounded=0;whiteSpace=wrap;html=1;sketch=1;" vertex="1" parent="CH4-YT0E6y_l0uyXhd_9-1">
          <mxGeometry y="80" width="480" height="360" as="geometry" />
        </mxCell>
        <mxCell id="CH4-YT0E6y_l0uyXhd_9-2" value="虚拟机栈" style="rounded=0;whiteSpace=wrap;html=1;sketch=1;fillColor=#d5e8d4;strokeColor=#82b366;" vertex="1" parent="CH4-YT0E6y_l0uyXhd_9-1">
          <mxGeometry x="40" y="120" width="120" height="60" as="geometry" />
        </mxCell>
        <mxCell id="CH4-YT0E6y_l0uyXhd_9-3" value="本地方法栈" style="rounded=0;whiteSpace=wrap;html=1;sketch=1;fillColor=#d5e8d4;strokeColor=#82b366;" vertex="1" parent="CH4-YT0E6y_l0uyXhd_9-1">
          <mxGeometry x="200" y="120" width="120" height="60" as="geometry" />
        </mxCell>
        <mxCell id="CH4-YT0E6y_l0uyXhd_9-4" value="程序计数器" style="rounded=0;whiteSpace=wrap;html=1;fillColor=#d5e8d4;strokeColor=#82b366;sketch=1;" vertex="1" parent="CH4-YT0E6y_l0uyXhd_9-1">
          <mxGeometry x="40" y="200" width="280" height="60" as="geometry" />
        </mxCell>
        <mxCell id="CH4-YT0E6y_l0uyXhd_9-5" value="堆" style="rounded=0;whiteSpace=wrap;html=1;fillColor=#ffe6cc;strokeColor=#d79b00;sketch=1;" vertex="1" parent="CH4-YT0E6y_l0uyXhd_9-1">
          <mxGeometry x="360" y="120" width="90" height="280" as="geometry" />
        </mxCell>
        <mxCell id="CH4-YT0E6y_l0uyXhd_9-6" value="" style="rounded=0;whiteSpace=wrap;html=1;fillColor=#ffe6cc;strokeColor=#d79b00;sketch=1;" vertex="1" parent="CH4-YT0E6y_l0uyXhd_9-1">
          <mxGeometry x="40" y="280" width="280" height="120" as="geometry" />
        </mxCell>
        <mxCell id="CH4-YT0E6y_l0uyXhd_9-7" value="" style="rounded=0;whiteSpace=wrap;html=1;fillColor=#e1d5e7;strokeColor=#9673a6;sketch=1;" vertex="1" parent="CH4-YT0E6y_l0uyXhd_9-1">
          <mxGeometry x="50" y="300" width="110" height="80" as="geometry" />
        </mxCell>
        <mxCell id="CH4-YT0E6y_l0uyXhd_9-9" value="方法区" style="rounded=0;whiteSpace=wrap;html=1;fillColor=#dae8fc;strokeColor=#6c8ebf;sketch=1;" vertex="1" parent="CH4-YT0E6y_l0uyXhd_9-1">
          <mxGeometry x="70" y="340" width="70" height="30" as="geometry" />
        </mxCell>
        <mxCell id="CH4-YT0E6y_l0uyXhd_9-10" value="元空间" style="text;html=1;strokeColor=none;fillColor=none;align=center;verticalAlign=middle;whiteSpace=wrap;rounded=0;" vertex="1" parent="CH4-YT0E6y_l0uyXhd_9-1">
          <mxGeometry x="85" y="310" width="40" height="20" as="geometry" />
        </mxCell>
        <mxCell id="CH4-YT0E6y_l0uyXhd_9-12" value="直接内存" style="rounded=0;whiteSpace=wrap;html=1;fillColor=#dae8fc;strokeColor=#6c8ebf;sketch=1;" vertex="1" parent="CH4-YT0E6y_l0uyXhd_9-1">
          <mxGeometry x="222.5" y="300" width="75" height="30" as="geometry" />
        </mxCell>
        <mxCell id="CH4-YT0E6y_l0uyXhd_9-13" value="本地内存" style="text;html=1;strokeColor=none;fillColor=none;align=center;verticalAlign=middle;whiteSpace=wrap;rounded=0;" vertex="1" parent="CH4-YT0E6y_l0uyXhd_9-1">
          <mxGeometry x="235" y="360" width="50" height="20" as="geometry" />
        </mxCell>
        <mxCell id="CH4-YT0E6y_l0uyXhd_9-15" value="" style="rounded=0;whiteSpace=wrap;html=1;sketch=1;" vertex="1" parent="CH4-YT0E6y_l0uyXhd_9-1">
          <mxGeometry x="560" y="80" width="480" height="360" as="geometry" />
        </mxCell>
        <mxCell id="CH4-YT0E6y_l0uyXhd_9-16" value="虚拟机栈" style="rounded=0;whiteSpace=wrap;html=1;sketch=1;fillColor=#d5e8d4;strokeColor=#82b366;" vertex="1" parent="CH4-YT0E6y_l0uyXhd_9-1">
          <mxGeometry x="600" y="120" width="120" height="60" as="geometry" />
        </mxCell>
        <mxCell id="CH4-YT0E6y_l0uyXhd_9-17" value="本地方法栈" style="rounded=0;whiteSpace=wrap;html=1;sketch=1;fillColor=#d5e8d4;strokeColor=#82b366;" vertex="1" parent="CH4-YT0E6y_l0uyXhd_9-1">
          <mxGeometry x="760" y="120" width="120" height="60" as="geometry" />
        </mxCell>
        <mxCell id="CH4-YT0E6y_l0uyXhd_9-18" value="程序计数器" style="rounded=0;whiteSpace=wrap;html=1;fillColor=#d5e8d4;strokeColor=#82b366;sketch=1;" vertex="1" parent="CH4-YT0E6y_l0uyXhd_9-1">
          <mxGeometry x="600" y="200" width="280" height="60" as="geometry" />
        </mxCell>
        <mxCell id="CH4-YT0E6y_l0uyXhd_9-19" value="堆" style="rounded=0;whiteSpace=wrap;html=1;fillColor=#ffe6cc;strokeColor=#d79b00;sketch=1;" vertex="1" parent="CH4-YT0E6y_l0uyXhd_9-1">
          <mxGeometry x="920" y="120" width="90" height="280" as="geometry" />
        </mxCell>
        <mxCell id="CH4-YT0E6y_l0uyXhd_9-20" value="" style="rounded=0;whiteSpace=wrap;html=1;fillColor=#ffe6cc;strokeColor=#d79b00;sketch=1;" vertex="1" parent="CH4-YT0E6y_l0uyXhd_9-1">
          <mxGeometry x="600" y="280" width="280" height="120" as="geometry" />
        </mxCell>
        <mxCell id="CH4-YT0E6y_l0uyXhd_9-23" value="" style="text;html=1;strokeColor=none;fillColor=none;align=center;verticalAlign=middle;whiteSpace=wrap;rounded=0;" vertex="1" parent="CH4-YT0E6y_l0uyXhd_9-1">
          <mxGeometry x="645" y="312" width="40" height="20" as="geometry" />
        </mxCell>
        <mxCell id="CH4-YT0E6y_l0uyXhd_9-24" value="直接内存" style="rounded=0;whiteSpace=wrap;html=1;fillColor=#dae8fc;strokeColor=#6c8ebf;sketch=1;" vertex="1" parent="CH4-YT0E6y_l0uyXhd_9-1">
          <mxGeometry x="702.5" y="300" width="75" height="30" as="geometry" />
        </mxCell>
        <mxCell id="CH4-YT0E6y_l0uyXhd_9-25" value="本地内存" style="text;html=1;strokeColor=none;fillColor=none;align=center;verticalAlign=middle;whiteSpace=wrap;rounded=0;" vertex="1" parent="CH4-YT0E6y_l0uyXhd_9-1">
          <mxGeometry x="715" y="360" width="50" height="20" as="geometry" />
        </mxCell>
        <mxCell id="CH4-YT0E6y_l0uyXhd_9-27" value="永久代/&lt;br&gt;方法区" style="rounded=0;whiteSpace=wrap;html=1;sketch=1;fillColor=#e1d5e7;strokeColor=#9673a6;" vertex="1" parent="CH4-YT0E6y_l0uyXhd_9-1">
          <mxGeometry x="930" y="330" width="70" height="55" as="geometry" />
        </mxCell>
        <mxCell id="CH4-YT0E6y_l0uyXhd_9-28" value="&lt;font style=&quot;font-size: 16px&quot;&gt;Java8 -- JVM 运行时数据区&lt;/font&gt;" style="text;html=1;strokeColor=none;fillColor=none;align=center;verticalAlign=middle;whiteSpace=wrap;rounded=0;sketch=1;" vertex="1" parent="CH4-YT0E6y_l0uyXhd_9-1">
          <mxGeometry x="140" y="40" width="200" height="30" as="geometry" />
        </mxCell>
        <mxCell id="CH4-YT0E6y_l0uyXhd_9-29" value="&lt;font style=&quot;font-size: 16px&quot;&gt;Java8之前 -- JVM 运行时数据&lt;/font&gt;" style="text;html=1;strokeColor=none;fillColor=none;align=center;verticalAlign=middle;whiteSpace=wrap;rounded=0;sketch=1;" vertex="1" parent="CH4-YT0E6y_l0uyXhd_9-1">
          <mxGeometry x="698.5" y="40" width="243" height="30" as="geometry" />
        </mxCell>
        <mxCell id="CH4-YT0E6y_l0uyXhd_9-31" style="edgeStyle=orthogonalEdgeStyle;rounded=0;orthogonalLoop=1;jettySize=auto;html=1;exitX=0.5;exitY=1;exitDx=0;exitDy=0;" edge="1" parent="CH4-YT0E6y_l0uyXhd_9-1" source="CH4-YT0E6y_l0uyXhd_9-28" target="CH4-YT0E6y_l0uyXhd_9-28">
          <mxGeometry relative="1" as="geometry" />
        </mxCell>
      </root>
    </mxGraphModel>
  </diagram>
</mxfile>
